<svg width="303" height="293" viewBox="0 0 303 293" fill="none" xmlns="http://www.w3.org/2000/svg">
<path d="M216.949 62.4884C263.369 95.6532 274.115 160.17 240.95 206.59C223.46 231.07 188.84 217.812 161.164 221.241C136.36 224.315 118.788 246.265 96.8486 230.591C71.0181 212.136 56.2338 183.974 53.9146 154.624C52.0659 131.229 65.2362 114.583 79.9464 93.9935C94.3711 73.8036 107.628 52.8581 129.846 46.843C158.711 39.0285 190.719 43.7483 216.949 62.4884Z" fill="#FFF8F8"/>
<mask id="mask0_35_1036" style="mask-type:alpha" maskUnits="userSpaceOnUse" x="53" y="43" width="208" height="194">
<path d="M216.949 62.4884C263.369 95.6532 274.115 160.17 240.95 206.59C223.46 231.07 188.84 217.812 161.164 221.241C136.36 224.315 118.788 246.265 96.8486 230.591C71.0181 212.136 56.2338 183.974 53.9146 154.624C52.0659 131.229 65.2362 114.583 79.9464 93.9935C94.3711 73.8036 107.628 52.858 129.846 46.843C158.711 39.0284 190.719 43.7483 216.949 62.4884Z" fill="#FFF8F8"/>
</mask>
<g mask="url(#mask0_35_1036)">
<path d="M188.989 128.889C190.399 112.946 188.285 94.6749 173.887 80.9865C168.339 76.4107 153.614 69.4423 139.087 78.1754C130.14 80.9865 123.543 86.3008 118.811 101.117C114.079 115.932 112.569 128.977 112.267 136.384C111.965 143.792 108.843 154.099 106.427 161.185C104.01 168.27 104.111 178.738 106.125 184.213C108.139 189.689 111.058 189.689 110.152 189.206C109.246 188.723 108.541 182.764 108.441 181.154C108.34 179.543 109.347 176.161 109.246 178.094C109.145 180.026 110.052 185.019 111.562 187.756C113.072 190.494 113.878 192.91 114.582 194.037C115.287 195.164 117.1 195.003 117.502 195.486C117.905 195.969 120.724 200.318 123.04 199.512C120.12 195.647 119.516 176.161 119.919 179.865C120.322 183.569 121.429 190.977 125.557 196.614C128.86 201.123 132.84 200.962 134.418 200.318C133.679 199.673 132.283 196.903 132.605 190.977C134.418 198.546 141.768 200.318 142.674 197.902C143.58 195.486 141.466 191.782 141.768 190.011C142.07 188.239 170.866 193.715 170.262 195.969C169.658 198.224 159.287 202.25 165.63 202.25C171.974 202.25 173.786 195.325 174.189 195.969C174.591 196.614 175.195 197.902 172.88 202.25C179.21 201.178 180.968 193.233 181.373 189.626C181.349 192.035 181.305 196.355 180.028 200.318C190.802 198.868 188.989 176.322 189.594 179.221C190.198 182.12 191.104 187.595 188.989 196.936C195.836 191.943 197.331 180.189 194.225 174.712C187.245 162.403 187.516 137.17 188.989 128.889Z" fill="#3D3020"/>
<path d="M164.895 154.486C164.094 153.772 164.187 146.808 164.632 144.986C164.81 144.205 143.477 136.783 143.366 141.69C143.255 146.597 141.573 148.785 141.253 149.497C135.684 161.875 145.734 179.556 164.895 172.958C165.736 172.669 166.499 160.315 166.833 158.419C167.166 156.523 165.896 155.378 164.895 154.486Z" fill="#FFD3A5" stroke="black"/>
<path d="M182.721 127.674C184.602 123.741 183.327 120.909 182.419 119.947L177.878 125.532L178.483 128.698L179.896 131.118C180.602 131.211 181.208 130.839 182.721 127.674Z" fill="#FFD3A5" stroke="black"/>
<path d="M172.328 102.071C168.857 99.3902 162.137 92.6995 159.211 89.6893C162.036 97.7889 166.879 101.42 166.274 102.444C162.339 102.63 151.34 90.2479 150.937 89.5031C150.533 88.7583 148.918 86.5239 149.12 88.3859C149.625 95.9269 145.488 100.209 140.846 104.12C137.987 106.326 132.269 113.212 132.269 123.112C132.471 124.322 133.077 125.532 131.26 123.112C129.444 120.691 128.536 116.967 124.197 117.154C119.858 117.34 120.363 123.391 121.574 127.115C122.784 130.839 127.83 133.725 130.251 134.377C132.673 135.029 133.077 132.236 133.884 133.725C135.397 137.635 140.846 141.266 143.571 142.849C146.295 144.432 155.175 147.504 159.715 147.597C164.256 147.69 170.31 144.711 174.952 141.266C179.593 137.822 179.997 133.073 179.896 128.698C179.795 124.322 182.62 120.412 182.62 119.481C182.62 118.55 184.134 113.243 182.62 111.009C181.107 108.775 176.667 105.423 172.328 102.071Z" fill="#FFD3A5" stroke="black"/>
<path d="M143.772 120.666C143.772 123.816 145.844 126.37 148.984 126.37C152.124 126.37 154.67 124.112 154.67 120.666C154.67 117.219 153.072 115.198 149.932 115.198C146.792 115.198 143.772 117.515 143.772 120.666Z" fill="#FFE1C1"/>
<path d="M147.781 121.377C147.996 123.942 149.316 125.941 151.053 125.817C152.79 125.693 154.045 123.755 153.81 120.948C153.576 118.142 152.554 116.559 150.817 116.683C149.08 116.807 147.567 118.812 147.781 121.377Z" fill="#3D3020"/>
<path d="M150.578 119.474C150.733 120.06 151.199 120.457 151.716 120.341C152.232 120.225 152.541 119.711 152.371 119.071C152.202 118.431 151.84 118.115 151.323 118.231C150.807 118.347 150.423 118.889 150.578 119.474Z" fill="#DDD2AE"/>
<path d="M150.129 114.267C153.52 114.119 154.569 116.378 154.67 117.526C152.147 114.454 147.001 115.757 144.983 117.991C142.965 120.226 144.075 121.902 143.57 121.622C143.066 121.343 143.167 118.736 143.57 117.991C143.974 117.247 145.891 114.454 150.129 114.267Z" fill="#3D3020"/>
<path d="M148.017 107.789C145.322 108.676 143.664 110.728 143.172 111.643C142.938 111.897 143.079 112.38 143.425 111.878C143.771 111.375 146.492 109.314 148.05 108.643C149.608 107.971 151.329 108.392 151.947 108.612C152.565 108.833 153.051 108.814 152.911 108.33C152.77 107.847 151.385 106.68 148.017 107.789Z" fill="#412F1A"/>
<path d="M168.998 121.038C168.998 124.189 170.686 126.743 173.245 126.743C175.804 126.743 177.878 124.485 177.878 121.038C177.878 117.591 176.576 115.571 174.017 115.571C171.459 115.571 168.998 117.887 168.998 121.038Z" fill="#FFE1C1"/>
<path d="M171.824 121.902C171.824 124.37 172.706 126.37 174.043 126.37C175.381 126.37 176.465 124.601 176.465 121.902C176.465 119.202 175.785 117.619 174.447 117.619C173.11 117.619 171.824 119.434 171.824 121.902Z" fill="#3D3020"/>
<path d="M173.64 120.02C173.64 120.545 173.947 120.971 174.412 120.971C174.877 120.971 175.254 120.594 175.254 120.02C175.254 119.445 175.018 119.109 174.552 119.109C174.087 119.109 173.64 119.495 173.64 120.02Z" fill="#DDD2AE"/>
<path d="M174.952 114.919C171.809 113.977 169.503 117.712 169.099 119.016C168.797 119.667 169.333 120.412 170.108 118.922C171.319 116.595 172.53 115.757 174.952 116.316C178.382 117.107 177.474 122.088 178.382 121.25C179.18 120.514 178.988 116.129 174.952 114.919Z" fill="#3D3020"/>
<path d="M175.303 108.146C178.03 108.927 179.767 110.913 180.294 111.808C180.538 112.052 180.416 112.54 180.051 112.052C179.686 111.564 176.886 109.611 175.303 109C173.721 108.39 172.017 108.878 171.408 109.122C170.799 109.367 170.312 109.367 170.434 108.878C170.556 108.39 171.895 107.169 175.303 108.146Z" fill="#412F1A"/>
<rect width="3.68882" height="8.43392" transform="matrix(-0.740568 0.671982 0.669935 0.74242 137.911 97.2222)" fill="#FFF6ED"/>
<path d="M166.193 136.542C165.14 137.861 161.456 139.181 157.772 136.542" stroke="#110000" stroke-linecap="round"/>
<path d="M127.676 126.132C126.865 124.26 125.047 120.736 124.268 121.615C123.489 122.494 123.943 124.586 124.268 125.521" stroke="#412F1A" stroke-linecap="round" stroke-linejoin="round"/>
<path d="M126.824 124.301C126.418 125.196 125.728 127.133 126.215 127.719C126.702 128.305 127.554 129.184 127.92 129.55" stroke="#412F1A" stroke-linecap="round" stroke-linejoin="round"/>
<path d="M163.089 128.803C163.454 129.373 163.965 130.683 163.089 131.366" stroke="black" stroke-linecap="round" stroke-linejoin="round"/>
<path d="M191.737 180.611C190.684 173.644 186.211 167.505 184.105 165.306C175.895 170.372 178.14 220.898 184.105 245.264C187.526 245.264 202 243.364 202 237.875C202 231.014 193.053 189.319 191.737 180.611Z" fill="#F5E0C6" stroke="black" stroke-linecap="round"/>
<path d="M184.313 164.685C184.313 162.019 171.398 156.599 167.181 155.621C165.863 162.819 160.591 171.349 158.483 170.816C156.374 170.283 139.505 151.356 137.133 151.623C134.761 151.89 119.21 157.487 117.892 162.019C116.574 166.551 100.76 280.641 105.504 295.302C105.504 303.565 193.011 307.03 193.011 295.302C193.011 271.145 178.778 175.347 184.313 164.685Z" fill="#F5E0C6" stroke="black" stroke-linecap="round"/>
<path d="M183.88 185.298L183.88 163.848C183.135 162.194 173.912 156.996 173.167 157.421C168.616 160.02 167.247 166.154 162.033 173.007C158.539 177.6 152.6 175.134 150.365 170.88C147.809 166.014 135.47 154.102 133.732 153.157C132.739 152.617 118.787 158.592 119.83 160.01C121.686 162.534 123.802 181.041 122.561 184.586C121.32 188.131 118.837 210.154 119.83 216.771C120.746 222.871 185.866 222.868 186.859 215.779C187.852 208.69 183.88 193.358 183.88 185.298Z" fill="#88745B" stroke="black" stroke-linecap="round"/>
<path d="M128.081 193.246C131.167 177.758 124.06 164.919 121.162 161.76C120.445 160.278 117.696 158.964 112.432 165.567C109.837 168.646 107.428 179.421 105.852 184.859C104.277 190.298 103.165 212.669 102.887 216.363C102.609 220.057 102.794 237.297 102.516 238.323C102.238 239.349 101.682 245.301 102.238 246.43C102.683 247.333 107.242 248.038 109.467 248.277C112.272 249.092 119.292 248.676 122.284 247.352C125.276 246.027 123.499 221.776 124.341 216.987C125.183 212.198 124.996 208.734 128.081 193.246Z" fill="#F5E0C6" stroke="black"/>
<path d="M169.632 154.222C167 151.583 165.901 150.663 164.632 150.792C163.363 150.92 164.765 154.775 164.105 157.917C163.053 162.931 163.228 166.898 162 168.208C166.211 165.569 167 163.194 170.421 161.875C173.842 160.556 174.735 160.849 175.158 157.917C174.572 156.665 172.777 157.377 169.632 154.222Z" fill="#F5E0C6" stroke="black" stroke-linecap="round" stroke-linejoin="round"/>
<path d="M141.587 153.431C141.014 152.004 141.879 149.246 141.587 148.417C141.432 147.843 140.278 148.794 138.618 149.081C136.061 149.476 131.474 149.842 131.474 154.486C131.376 155.729 135.947 162.403 139.632 166.361C143.133 170.123 144.83 168.752 148.053 166.361C151.275 163.97 153.999 167.796 153.316 166.361C152.632 164.926 142.752 156.333 141.587 153.431Z" fill="#F5E0C6" stroke="black" stroke-linecap="round" stroke-linejoin="round"/>
</g>
<path d="M211.048 65.9098C252.617 107.479 262.981 174.961 221.539 216.403C210.716 227.226 197.165 227.898 182.604 225.655C176.985 224.789 171.244 223.494 165.466 222.191C163.753 221.804 162.037 221.417 160.32 221.04C152.825 219.396 145.323 217.949 138.076 217.646C131.559 217.374 125.317 218.394 119.332 219.757C116.742 220.347 114.194 221.003 111.693 221.646C111.306 221.746 110.919 221.845 110.533 221.944C107.658 222.682 104.846 223.387 102.085 223.947C96.5601 225.067 91.2736 225.597 86.162 224.644C81.0629 223.694 76.1049 221.262 71.2454 216.403C48.4438 193.601 38.1693 163.017 40.4224 133.2C41.3454 120.985 44.3699 111.403 49.4911 102.539C54.6186 93.6645 61.8582 85.4915 71.2454 76.1043C74.2057 73.144 77.2765 69.8902 80.4493 66.5284C85.7336 60.9292 91.3009 55.0302 97.1121 49.6878C106.403 41.1465 116.19 34.156 126.184 32.2446C159.532 25.8664 185.101 39.9627 211.048 65.9098Z" stroke="#FFB9B9"/>
<path d="M216.658 62.8952C262.854 95.8995 273.547 160.104 240.543 206.299C231.939 218.341 219.121 221.136 204.87 221.31C199.371 221.377 193.687 221.054 187.966 220.728C186.27 220.632 184.571 220.535 182.872 220.449C175.458 220.07 168.068 219.882 161.102 220.745C154.838 221.521 149.042 223.488 143.546 225.74C141.168 226.715 138.84 227.746 136.556 228.757C136.202 228.914 135.849 229.07 135.497 229.226C132.87 230.386 130.299 231.506 127.753 232.479C122.66 234.426 117.702 235.771 112.675 235.675C107.661 235.578 102.547 234.047 97.1392 230.184C71.4339 211.819 56.7211 183.794 54.413 154.585C52.6923 132.808 64.0887 116.939 77.7036 97.9802C78.5786 96.7617 79.4628 95.5305 80.3532 94.2842C81.5132 92.6607 82.6646 91.0338 83.8128 89.4112C89.8175 80.9266 95.7365 72.5629 102.34 65.4427C110.199 56.9695 118.991 50.2998 129.976 47.3256C158.703 39.5486 190.555 44.2459 216.658 62.8952Z" stroke="#FDFFB9"/>
<path d="M207.748 41.3337C259.723 64.1779 283.339 124.831 260.494 176.807C254.539 190.356 242.565 195.717 228.652 198.805C223.283 199.997 217.653 200.844 211.987 201.698C210.307 201.95 208.624 202.204 206.943 202.467C199.609 203.615 192.337 204.944 185.696 207.216C179.723 209.258 174.452 212.37 169.534 215.7C167.406 217.141 165.339 218.627 163.31 220.084C162.996 220.31 162.682 220.536 162.369 220.76C160.037 222.434 157.749 224.057 155.457 225.531C150.87 228.479 146.292 230.811 141.352 231.746C136.425 232.679 131.105 232.227 125.021 229.553C96.0997 216.842 75.9594 192.424 67.7185 164.306C61.5745 143.344 69.4795 125.477 78.9233 104.132C79.5302 102.76 80.1435 101.374 80.7598 99.9717C81.5627 98.145 82.3565 96.3168 83.1482 94.4935C87.2879 84.959 91.3687 75.5603 96.3743 67.2387C102.331 57.3357 109.571 49.0069 119.714 43.8459C146.239 30.3507 178.379 28.4254 207.748 41.3337Z" stroke="#B9FAFF"/>
</svg>
