<svg width="51" height="42" viewBox="0 0 51 42" fill="none" xmlns="http://www.w3.org/2000/svg">
<path d="M41 15V4C41 2.34315 39.6569 1 38 1H4C2.34315 1 1 2.34315 1 4V28C1 29.6569 2.34315 31 4 31H30" stroke="white"/>
<path d="M1 7.56H41" stroke="white"/>
<path d="M4.2 4.69H28.2" stroke="white"/>
<circle cx="32.6" cy="4.68999" r="0.714908" stroke="white"/>
<circle cx="36.6" cy="4.68999" r="0.714908" stroke="white"/>
<mask id="path-6-inside-1_150_566" fill="white">
<path d="M47.3782 19.4187C47.5727 19.9455 47.7396 20.5268 47.8697 21.1073C48.1633 22.4162 48.3043 23.8111 48.1784 24.5953L48.1453 24.7715C47.959 25.6633 47.4284 26.7154 46.6811 27.5981C45.933 28.4817 44.9157 29.2559 43.7235 29.5018L43.4832 29.5436C42.5855 29.6718 41.5128 29.5672 40.541 29.3962C40.1527 29.3279 39.774 29.2447 39.4197 29.1616L32.7024 37.1669C31.8191 38.2196 30.2496 38.3568 29.1969 37.4736C28.1441 36.5903 28.0068 35.0207 28.8902 33.968L35.7807 25.7562C35.6887 25.5348 35.5977 25.3076 35.5106 25.0784C35.1929 24.2417 34.9073 23.3329 34.8229 22.5738L34.8001 22.2576C34.7306 20.1267 35.6543 18.064 37.7891 16.8071L37.9724 16.7071C38.9144 16.2331 40.2143 16.137 41.4152 16.2063C42.3449 16.26 43.2761 16.4178 44.0412 16.6212L42.2497 18.7563C42.0603 18.9821 41.9789 19.2804 42.0523 19.5658C42.1887 20.0967 42.4694 20.9522 42.9274 21.3366C43.3854 21.7208 44.2767 21.8487 44.8232 21.8909C45.117 21.9135 45.3959 21.781 45.5854 21.5553L47.3782 19.4187Z"/>
</mask>
<path d="M47.3782 19.4187L48.3163 19.0724L47.7196 17.4561L46.6122 18.7759L47.3782 19.4187ZM47.8697 21.1073L48.8455 20.8885L48.8455 20.8884L47.8697 21.1073ZM48.1784 24.5953L49.1612 24.78L49.1636 24.767L49.1657 24.7539L48.1784 24.5953ZM48.1453 24.7715L49.1241 24.976L49.1262 24.9661L49.1281 24.9562L48.1453 24.7715ZM46.6811 27.5981L47.4443 28.2443L47.4444 28.2442L46.6811 27.5981ZM43.7235 29.5018L43.895 30.487L43.9103 30.4843L43.9255 30.4812L43.7235 29.5018ZM43.4832 29.5436L43.6245 30.5336L43.6396 30.5314L43.6546 30.5288L43.4832 29.5436ZM40.541 29.3962L40.3677 30.3811L40.3677 30.3811L40.541 29.3962ZM39.4197 29.1616L39.6481 28.188L39.0491 28.0475L38.6536 28.5188L39.4197 29.1616ZM29.1969 37.4736L28.5541 38.2396L28.5541 38.2397L29.1969 37.4736ZM28.8902 33.968L29.6562 34.6108L28.8902 33.968ZM35.7807 25.7562L36.5467 26.399L36.9371 25.9338L36.7043 25.3729L35.7807 25.7562ZM35.5106 25.0784L34.5758 25.4334L34.5758 25.4334L35.5106 25.0784ZM34.8229 22.5738L33.8255 22.6458L33.8269 22.6651L33.8291 22.6843L34.8229 22.5738ZM34.8001 22.2576L33.8007 22.2902L33.8013 22.3099L33.8027 22.3296L34.8001 22.2576ZM37.7891 16.8071L37.3105 15.929L37.296 15.9369L37.2818 15.9453L37.7891 16.8071ZM37.9724 16.7071L37.5229 15.8139L37.5082 15.8213L37.4937 15.8291L37.9724 16.7071ZM41.4152 16.2063L41.4729 15.208L41.4728 15.208L41.4152 16.2063ZM44.0412 16.6212L44.8072 17.264L45.8184 16.0589L44.2981 15.6548L44.0412 16.6212ZM42.2497 18.7563L41.4836 18.1135L41.4835 18.1137L42.2497 18.7563ZM42.0523 19.5658L41.0837 19.8147L41.0837 19.8148L42.0523 19.5658ZM42.9274 21.3366L42.2846 22.1026L42.2847 22.1027L42.9274 21.3366ZM44.8232 21.8909L44.7462 22.8879L44.7465 22.888L44.8232 21.8909ZM45.5854 21.5553L46.3513 22.1983L46.3515 22.1981L45.5854 21.5553ZM47.3782 19.4187L46.4401 19.765C46.617 20.2444 46.772 20.7825 46.894 21.3261L47.8697 21.1073L48.8455 20.8884C48.7071 20.2712 48.5283 19.6466 48.3163 19.0724L47.3782 19.4187ZM47.8697 21.1073L46.894 21.3261C47.1807 22.605 47.2857 23.8468 47.191 24.4368L48.1784 24.5953L49.1657 24.7539C49.3228 23.7754 49.1458 22.2275 48.8455 20.8885L47.8697 21.1073ZM48.1784 24.5953L47.1956 24.4107L47.1625 24.5868L48.1453 24.7715L49.1281 24.9562L49.1612 24.78L48.1784 24.5953ZM48.1453 24.7715L47.1664 24.5671C47.0198 25.2691 46.5769 26.1735 45.9179 26.952L46.6811 27.5981L47.4444 28.2442C48.2798 27.2573 48.8982 26.0575 49.1241 24.976L48.1453 24.7715ZM46.6811 27.5981L45.9179 26.9519C45.258 27.7313 44.4224 28.3366 43.5215 28.5224L43.7235 29.5018L43.9255 30.4812C45.409 30.1752 46.6079 29.2322 47.4443 28.2443L46.6811 27.5981ZM43.7235 29.5018L43.5521 28.5166L43.3118 28.5584L43.4832 29.5436L43.6546 30.5288L43.895 30.487L43.7235 29.5018ZM43.4832 29.5436L43.3419 28.5537C42.6017 28.6593 41.653 28.5765 40.7142 28.4113L40.541 29.3962L40.3677 30.3811C41.3726 30.5579 42.5693 30.6842 43.6245 30.5336L43.4832 29.5436ZM40.541 29.3962L40.7143 28.4113C40.352 28.3476 39.9936 28.2691 39.6481 28.188L39.4197 29.1616L39.1913 30.1352C39.5545 30.2204 39.9534 30.3082 40.3677 30.3811L40.541 29.3962ZM39.4197 29.1616L38.6536 28.5188L31.9364 36.5241L32.7024 37.1669L33.4685 37.8097L40.1857 29.8044L39.4197 29.1616ZM32.7024 37.1669L31.9364 36.5241C31.4081 37.1536 30.4693 37.2358 29.8396 36.7075L29.1969 37.4736L28.5541 38.2397C30.0298 39.4778 32.2301 39.2855 33.4685 37.8097L32.7024 37.1669ZM29.1969 37.4736L29.8396 36.7076C29.21 36.1792 29.1279 35.2405 29.6562 34.6108L28.8902 33.968L28.1241 33.3252C26.8858 34.801 27.0783 37.0013 28.5541 38.2396L29.1969 37.4736ZM28.8902 33.968L29.6562 34.6108L36.5467 26.399L35.7807 25.7562L35.0146 25.1135L28.1241 33.3252L28.8902 33.968ZM35.7807 25.7562L36.7043 25.3729C36.6155 25.1589 36.5283 24.9413 36.4455 24.7233L35.5106 25.0784L34.5758 25.4334C34.6671 25.6738 34.762 25.9106 34.8571 26.1396L35.7807 25.7562ZM35.5106 25.0784L36.4455 24.7234C36.135 23.9057 35.8868 23.0929 35.8168 22.4633L34.8229 22.5738L33.8291 22.6843C33.9279 23.5729 34.2508 24.5777 34.5758 25.4334L35.5106 25.0784ZM34.8229 22.5738L35.8203 22.5019L35.7975 22.1857L34.8001 22.2576L33.8027 22.3296L33.8255 22.6458L34.8229 22.5738ZM34.8001 22.2576L35.7996 22.225C35.7408 20.4236 36.5069 18.7224 38.2965 17.6688L37.7891 16.8071L37.2818 15.9453C34.8016 17.4056 33.7204 19.8298 33.8007 22.2902L34.8001 22.2576ZM37.7891 16.8071L38.2678 17.6851L38.451 17.5852L37.9724 16.7071L37.4937 15.8291L37.3105 15.929L37.7891 16.8071ZM37.9724 16.7071L38.4219 17.6004C39.124 17.2471 40.2071 17.1383 41.3576 17.2046L41.4152 16.2063L41.4728 15.208C40.2215 15.1358 38.7049 15.2191 37.5229 15.8139L37.9724 16.7071ZM41.4152 16.2063L41.3576 17.2046C42.2187 17.2544 43.0833 17.4013 43.7843 17.5876L44.0412 16.6212L44.2981 15.6548C43.469 15.4344 42.471 15.2656 41.4729 15.208L41.4152 16.2063ZM44.0412 16.6212L43.2752 15.9784L41.4836 18.1135L42.2497 18.7563L43.0157 19.399L44.8072 17.264L44.0412 16.6212ZM42.2497 18.7563L41.4835 18.1137C41.1099 18.5592 40.9216 19.1837 41.0837 19.8147L42.0523 19.5658L43.0208 19.3169C43.0278 19.3442 43.0259 19.3679 43.0222 19.3827C43.0188 19.3962 43.0146 19.4004 43.0159 19.3988L42.2497 18.7563ZM42.0523 19.5658L41.0837 19.8148C41.1594 20.109 41.2795 20.5125 41.454 20.909C41.6185 21.2828 41.8785 21.7619 42.2846 22.1026L42.9274 21.3366L43.5702 20.5705C43.5182 20.5269 43.4089 20.3861 43.2845 20.1034C43.1701 19.8432 43.0816 19.5536 43.0208 19.3169L42.0523 19.5658ZM42.9274 21.3366L42.2847 22.1027C42.6907 22.4433 43.2076 22.6162 43.6044 22.7133C44.0251 22.8163 44.4433 22.8645 44.7462 22.8879L44.8232 21.8909L44.9002 20.8939C44.6565 20.8751 44.3559 20.8383 44.0799 20.7707C43.7798 20.6972 43.6221 20.6141 43.5701 20.5705L42.9274 21.3366ZM44.8232 21.8909L44.7465 22.888C45.3979 22.9381 45.9789 22.6418 46.3513 22.1983L45.5854 21.5553L44.8195 20.9123C44.8176 20.9146 44.8205 20.9099 44.8333 20.9042C44.8475 20.8978 44.8711 20.8916 44.8999 20.8939L44.8232 21.8909ZM45.5854 21.5553L46.3515 22.1981L48.1442 20.0615L47.3782 19.4187L46.6122 18.7759L44.8194 20.9125L45.5854 21.5553Z" fill="white" mask="url(#path-6-inside-1_150_566)"/>
<circle cx="21" cy="16.5" r="2" stroke="white"/>
<path d="M21 20C22.3363 20 23.4448 20.2449 24.2168 20.8848C24.9012 21.4521 25.4 22.3994 25.4854 24H16.5146C16.6 22.3994 17.0988 21.4521 17.7832 20.8848C18.5552 20.2449 19.6637 20 21 20Z" stroke="white"/>
</svg>
