<svg width="36" height="42" viewBox="0 0 36 42" fill="none" xmlns="http://www.w3.org/2000/svg">
<path d="M26 11V4C26 2.34315 24.6569 1 23 1H4C2.34315 1 1 2.34315 1 4V38C1 39.6569 2.34315 41 4 41H23C24.6569 41 26 39.6569 26 38V24.5" stroke="white"/>
<path d="M2 8H25" stroke="white" stroke-linecap="round"/>
<path d="M2 35H25" stroke="white" stroke-linecap="round"/>
<path d="M11.5769 37.3636H15.4231" stroke="white" stroke-linecap="round"/>
<circle cx="14" cy="5" r="0.5" stroke="white"/>
<mask id="path-6-inside-1_150_459" fill="white">
<path d="M34 12C35.1046 12 36 12.8954 36 14V21.333C36 22.4376 35.1046 23.333 34 23.333H26.2715L23.123 25.6035C22.3411 26.1673 21.2922 25.4068 21.585 24.4883L21.9531 23.333H21C19.8954 23.333 19 22.4376 19 21.333V14C19 12.8954 19.8954 12 21 12H34Z"/>
</mask>
<path d="M34 23.333L34 24.333L34 23.333ZM26.2715 23.333V22.333H25.9485L25.6866 22.5219L26.2715 23.333ZM23.123 25.6035L23.7079 26.4147L23.708 26.4146L23.123 25.6035ZM21.585 24.4883L22.5377 24.792L22.5377 24.7919L21.585 24.4883ZM21.9531 23.333L22.9059 23.6366L23.3214 22.333H21.9531V23.333ZM21 12L21 11L21 12ZM34 12V13C34.5523 13 35 13.4477 35 14H36H37C37 12.3431 35.6569 11 34 11V12ZM36 14H35V21.333H36H37V14H36ZM36 21.333H35C35 21.8853 34.5523 22.333 34 22.333L34 23.333L34 24.333C35.6569 24.333 37 22.9899 37 21.333H36ZM34 23.333V22.333H26.2715V23.333V24.333H34V23.333ZM26.2715 23.333L25.6866 22.5219L22.5381 24.7924L23.123 25.6035L23.708 26.4146L26.8564 24.1441L26.2715 23.333ZM23.123 25.6035L22.5382 24.7924L22.5377 24.792L21.585 24.4883L20.6322 24.1846C20.0468 26.0213 22.1438 27.5425 23.7079 26.4147L23.123 25.6035ZM21.585 24.4883L22.5377 24.7919L22.9059 23.6366L21.9531 23.333L21.0003 23.0294L20.6322 24.1846L21.585 24.4883ZM21.9531 23.333V22.333H21V23.333V24.333H21.9531V23.333ZM21 23.333V22.333C20.4477 22.333 20 21.8853 20 21.333H19H18C18 22.9899 19.3431 24.333 21 24.333V23.333ZM19 21.333H20V14H19H18V21.333H19ZM19 14H20C20 13.4477 20.4477 13 21 13L21 12L21 11C19.3431 11 18 12.3431 18 14H19ZM21 12V13H34V12V11H21V12Z" fill="white" mask="url(#path-6-inside-1_150_459)"/>
<path d="M22.4 15.9667H26.9333" stroke="white" stroke-linecap="round"/>
<path d="M22.4 18.8H31.4667" stroke="white" stroke-linecap="round"/>
</svg>
