<svg width="50" height="41" viewBox="0 0 50 41" fill="none" xmlns="http://www.w3.org/2000/svg">
<rect x="0.5" y="0.5" width="49" height="40" rx="2.5" stroke="white"/>
<path d="M0 8H50" stroke="white"/>
<path d="M4 4.5H34" stroke="white"/>
<circle cx="39.5" cy="4.5" r="1" stroke="white"/>
<circle cx="44.5" cy="4.5" r="1" stroke="white"/>
<path d="M30.5 20.2234C30.5 19.3597 31.5153 18.8961 32.168 19.4617L35.0078 21.9226L35.1191 22.0301C35.3626 22.2923 35.4999 22.6382 35.5 22.9998C35.5 23.4132 35.3202 23.8062 35.0078 24.0769L32.168 26.5388C31.5154 27.104 30.5004 26.6404 30.5 25.7771C30.5 25.4751 30.6356 25.1883 30.8691 24.9969L33.3047 22.9998L30.8691 21.0027C30.6356 20.8113 30.5 20.5254 30.5 20.2234Z" stroke="white"/>
<path d="M26.4844 17.5068C27.0329 17.5734 27.4177 18.0914 27.3232 18.6357L27.2949 18.7529L24.5664 27.8086C24.4426 28.219 24.0644 28.4999 23.6357 28.5C22.984 28.5 22.517 27.8711 22.7051 27.2471L25.4336 18.1914L25.4912 18.0439C25.6523 17.7151 25.9891 17.5001 26.3643 17.5L26.4844 17.5068Z" stroke="white"/>
<path d="M17.958 19.368C18.6074 18.9555 19.5 19.4135 19.5 20.2234C19.5 20.4876 19.3962 20.7394 19.2139 20.9265L19.1309 21.0027L16.6943 22.9998L19.1309 24.9969C19.3644 25.1883 19.5 25.4751 19.5 25.7771C19.4996 26.5866 18.6073 27.0447 17.958 26.6326L17.832 26.5388L14.9922 24.0769C14.6798 23.8062 14.5 23.4132 14.5 22.9998C14.5001 22.5864 14.6798 22.1934 14.9922 21.9226L17.832 19.4617L17.958 19.368Z" stroke="white"/>
</svg>
