<svg width="50" height="41" viewBox="0 0 50 41" fill="none" xmlns="http://www.w3.org/2000/svg">
<rect x="0.5" y="0.5" width="49" height="40" rx="2.5" stroke="white"/>
<path d="M0 8H50" stroke="white"/>
<path d="M4 4.5H34" stroke="white"/>
<circle cx="39.5" cy="4.5" r="1" stroke="white"/>
<circle cx="44.5" cy="4.5" r="1" stroke="white"/>
<mask id="path-6-inside-1_150_400" fill="white">
<path d="M24.831 14.5637C25.2063 14.2401 25.7624 14.24 26.1376 14.5637L35.6191 22.7434C36.3204 23.3488 35.8923 24.5001 34.9657 24.5002H32.5116V32.0002C32.5114 32.5523 32.0637 33.0001 31.5116 33.0002H26.9999V29.0002C26.9999 28.4479 26.5522 28.0002 25.9999 28.0002H24.9999C24.4477 28.0003 23.9999 28.448 23.9999 29.0002V33.0002H19.456C18.904 33 18.4562 32.5522 18.456 32.0002V24.5002H16.0019C15.0753 24.5001 14.6473 23.3488 15.3485 22.7434L24.831 14.5637Z"/>
</mask>
<path d="M24.831 14.5637L24.1779 13.8064L24.1778 13.8065L24.831 14.5637ZM26.1376 14.5637L26.7908 13.8065L26.7908 13.8065L26.1376 14.5637ZM35.6191 22.7434L36.2725 21.9864L36.2723 21.9862L35.6191 22.7434ZM34.9657 24.5002L34.9657 25.5002L34.9659 25.5002L34.9657 24.5002ZM32.5116 24.5002V23.5002H31.5116V24.5002H32.5116ZM32.5116 32.0002L33.5116 32.0006V32.0002H32.5116ZM31.5116 33.0002L31.5116 34.0002L31.5118 34.0002L31.5116 33.0002ZM26.9999 33.0002H25.9999V34.0002H26.9999V33.0002ZM24.9999 28.0002L24.9999 27.0002L24.9997 27.0002L24.9999 28.0002ZM23.9999 33.0002V34.0002H24.9999V33.0002H23.9999ZM19.456 33.0002L19.4556 34.0002H19.456V33.0002ZM18.456 32.0002L17.456 32.0002L17.456 32.0006L18.456 32.0002ZM18.456 24.5002H19.456V23.5002H18.456V24.5002ZM16.0019 24.5002L16.0017 25.5002H16.0019V24.5002ZM15.3485 22.7434L14.6954 21.9862L14.6951 21.9865L15.3485 22.7434ZM24.831 14.5637L25.484 15.321L25.4844 15.3209L26.1376 14.5637L26.7908 13.8065C26.0402 13.159 24.9283 13.1593 24.1779 13.8064L24.831 14.5637ZM26.1376 14.5637L25.4844 15.3209L34.9658 23.5006L35.6191 22.7434L36.2723 21.9862L26.7908 13.8065L26.1376 14.5637ZM35.6191 22.7434L34.9656 23.5004L34.9656 23.5002L34.9657 24.5002L34.9659 25.5002C36.819 25.4999 37.6754 23.1974 36.2725 21.9864L35.6191 22.7434ZM34.9657 24.5002V23.5002H32.5116V24.5002V25.5002H34.9657V24.5002ZM32.5116 24.5002H31.5116V32.0002H32.5116H33.5116V24.5002H32.5116ZM32.5116 32.0002L31.5116 31.9998L31.5115 32.0002L31.5116 33.0002L31.5118 34.0002C32.6163 34 33.5112 33.1044 33.5116 32.0006L32.5116 32.0002ZM31.5116 33.0002V32.0002H26.9999V33.0002V34.0002H31.5116V33.0002ZM26.9999 33.0002H27.9999V29.0002H26.9999H25.9999V33.0002H26.9999ZM26.9999 29.0002H27.9999C27.9999 27.8957 27.1045 27.0002 25.9999 27.0002V28.0002V29.0002H26.9999ZM25.9999 28.0002V27.0002H24.9999V28.0002V29.0002H25.9999V28.0002ZM24.9999 28.0002L24.9997 27.0002C23.8956 27.0004 22.9999 27.8955 22.9999 29.0002H23.9999H24.9999L25.0001 29.0002L24.9999 28.0002ZM23.9999 29.0002H22.9999V33.0002H23.9999H24.9999V29.0002H23.9999ZM23.9999 33.0002V32.0002H19.456V33.0002V34.0002H23.9999V33.0002ZM19.456 33.0002L19.4564 32.0002L19.456 31.9998L18.456 32.0002L17.456 32.0006C17.4564 33.1046 18.3517 33.9998 19.4556 34.0002L19.456 33.0002ZM18.456 32.0002H19.456V24.5002H18.456H17.456V32.0002H18.456ZM18.456 24.5002V23.5002H16.0019V24.5002V25.5002H18.456V24.5002ZM16.0019 24.5002L16.002 23.5002L16.002 23.5003L15.3485 22.7434L14.6951 21.9865C13.2926 23.1973 14.1484 25.5 16.0017 25.5002L16.0019 24.5002ZM15.3485 22.7434L16.0017 23.5006L25.4841 15.3209L24.831 14.5637L24.1778 13.8065L14.6954 21.9862L15.3485 22.7434Z" fill="white" mask="url(#path-6-inside-1_150_400)"/>
</svg>
