<svg width="51" height="42" viewBox="0 0 51 42" fill="none" xmlns="http://www.w3.org/2000/svg">
<path d="M26.6941 30.5L29.3883 35.5203H16L18.6942 30.5" stroke="white"/>
<path d="M34.5 30.5135H4C2.34315 30.5135 1 29.1704 1 27.5135V4C1 2.34315 2.34315 1 4 1H42C43.6569 1 45 2.34315 45 4V15" stroke="white"/>
<path d="M1.18921 24.1892H34.5" stroke="white"/>
<path d="M21 27.3513H25.7568" stroke="white" stroke-linecap="round"/>
<path d="M7.72973 4.21622L4.75676 6.85135" stroke="white" stroke-linecap="round"/>
<path d="M13.0811 4.21622L5.35136 11.0676" stroke="white" stroke-linecap="round"/>
<path d="M13 35.58H32.027" stroke="white" stroke-linecap="round"/>
<rect x="36.5" y="17.12" width="14" height="24.3846" rx="1.5" stroke="white"/>
<path d="M37.1538 21.2354H49.8461" stroke="white" stroke-linecap="round"/>
<path d="M37.1538 37.9662H49.8461" stroke="white" stroke-linecap="round"/>
<path d="M42.3462 19.5046H44.6539" stroke="white" stroke-linecap="round"/>
<path d="M42.3462 39.6969H44.6539" stroke="white" stroke-linecap="round"/>
</svg>
